<svg width="30" height="30" fill="none" xmlns="http://www.w3.org/2000/svg"><path fill-rule="evenodd" clip-rule="evenodd" d="M0 15C0 6.716 6.716 0 15 0c8.284 0 15 6.716 15 15 0 8.284-6.716 15-15 15-8.284 0-15-6.716-15-15Zm21.184-8.5H9.316A1.81 1.81 0 0 0 7.5 8.303v11.83a1.81 1.81 0 0 0 1.816 1.802H19.36l-.47-1.619 1.134 1.042 1.072.98L23 24V8.303A1.81 1.81 0 0 0 21.184 6.5Z" fill="#fff"/><path fill-rule="evenodd" clip-rule="evenodd" d="M17.765 17.927s-.318-.376-.584-.709c1.16-.323 1.603-1.04 1.603-1.04a5.094 5.094 0 0 1-1.018.515 5.887 5.887 0 0 1-1.285.377 6.28 6.28 0 0 1-2.294-.009 7.511 7.511 0 0 1-1.302-.376 5.22 5.22 0 0 1-.646-.298c-.027-.017-.054-.026-.08-.044a.123.123 0 0 1-.036-.026c-.159-.087-.247-.148-.247-.148s.425.7 1.55 1.032c-.266.332-.594.726-.594.726-1.957-.061-2.701-1.33-2.701-1.33 0-2.817 1.275-5.101 1.275-5.101 1.275-.945 2.489-.919 2.489-.919l.088.105c-1.594.455-2.329 1.146-2.329 1.146s.195-.104.523-.253c.947-.411 1.7-.525 2.01-.551a.777.777 0 0 1 .15-.018 7.281 7.281 0 0 1 4.455.822s-.699-.656-2.204-1.11l.123-.14s1.214-.027 2.49.918c0 0 1.275 2.284 1.275 5.101 0 0-.753 1.269-2.71 1.33ZM13.896 14c-.5 0-.896.45-.896 1s.404 1 .896 1c.501 0 .897-.45.897-1 .008-.55-.396-1-.897-1Zm3.208 0c-.501 0-.897.45-.897 1s.405 1 .897 1c.5 0 .896-.45.896-1s-.395-1-.896-1Z" fill="#fff"/></svg>