<svg width="19" height="30" fill="none" xmlns="http://www.w3.org/2000/svg"><g clip-path="url(#a)"><mask id="b" style="mask-type:alpha" maskUnits="userSpaceOnUse" x="0" y="0" width="137" height="30"><path d="M15.444.774A4 4 0 0 1 17.81 0h115.069a4 4 0 0 1 3.998 4.12l-.361 12.005a4.001 4.001 0 0 1-1.534 3.03l-12.778 9.996a4 4 0 0 1-2.464.849H4a4 4 0 0 1-4-4V14.124a4 4 0 0 1 1.635-3.226L15.445.774Z" fill="#1AB641"/></mask><g mask="url(#b)"><path d="M19 0H0v30h19V0Z" fill="#1AB641"/></g></g><defs><clipPath id="a"><path fill="#fff" d="M0 0h19v30H0z"/></clipPath></defs></svg>