<svg width="19" height="30" preserveAspectRatio="none" fill="none" xmlns="http://www.w3.org/2000/svg"><g clip-path="url(#a)"><mask id="b" style="mask-type:alpha" maskUnits="userSpaceOnUse" x="-118" y="0" width="137" height="30"><path d="M3.556 29.226A4 4 0 0 1 1.19 30h-115.069a4 4 0 0 1-3.998-4.12l.361-12.005a4.001 4.001 0 0 1 1.534-3.03l12.778-9.996A3.998 3.998 0 0 1-100.739 0H15a4 4 0 0 1 4 4v11.876a4 4 0 0 1-1.635 3.226L3.555 29.226Z" fill="#1AB641"/></mask><g mask="url(#b)"><path d="M0 30h19V0H0v30Z" fill="#1AB641"/></g></g><defs><clipPath id="a"><path fill="#fff" transform="rotate(180 9.5 15)" d="M0 0h19v30H0z"/></clipPath></defs></svg>