<svg width="30" height="30" fill="none" xmlns="http://www.w3.org/2000/svg"><path fill-rule="evenodd" clip-rule="evenodd" d="M0 15C0 6.716 6.716 0 15 0c8.284 0 15 6.716 15 15 0 8.284-6.716 15-15 15-8.284 0-15-6.716-15-15Zm14.55-2.808.032.52-.524-.064c-1.91-.244-3.578-1.07-4.995-2.458l-.692-.688-.178.508c-.378 1.133-.137 2.33.65 3.136.42.444.325.508-.399.243-.252-.085-.472-.148-.493-.116-.073.074.179 1.038.378 1.419.273.53.829 1.049 1.437 1.356l.514.244-.608.01c-.588 0-.609.01-.546.233.21.689 1.039 1.42 1.962 1.737l.65.223-.566.339a5.908 5.908 0 0 1-2.812.784c-.472.01-.86.053-.86.084 0 .106 1.28.7 2.025.932 2.235.689 4.89.392 6.883-.783 1.416-.837 2.833-2.5 3.494-4.11.357-.858.713-2.426.713-3.178 0-.487.032-.55.62-1.133.346-.34.67-.71.734-.816.105-.201.094-.201-.44-.021-.893.318-1.019.275-.578-.202.325-.338.713-.953.713-1.133 0-.032-.157.021-.335.117-.19.105-.609.264-.924.36l-.566.18-.514-.35c-.284-.19-.682-.402-.892-.466-.535-.148-1.354-.127-1.836.043-1.312.476-2.14 1.705-2.046 3.05Z" fill="#fff"/></svg>