<svg width="30" height="30" fill="none" xmlns="http://www.w3.org/2000/svg"><path fill-rule="evenodd" clip-rule="evenodd" d="M0 15C0 6.716 6.716 0 15 0c8.284 0 15 6.716 15 15 0 8.284-6.716 15-15 15-8.284 0-15-6.716-15-15Zm22.666-3.704a2.032 2.032 0 0 0-1.415-1.453C20.003 9.5 15 9.5 15 9.5s-5.003 0-6.251.343a2.031 2.031 0 0 0-1.415 1.453C7 12.576 7 15.25 7 15.25s0 2.673.334 3.954a2.031 2.031 0 0 0 1.415 1.453C9.997 21 15 21 15 21s5.003 0 6.251-.343a2.031 2.031 0 0 0 1.415-1.453C23 17.923 23 15.25 23 15.25s0-2.673-.334-3.954Z" fill="#fff"/><path fill-rule="evenodd" clip-rule="evenodd" d="M13.5 18v-5l4 2.5-4 2.5Z" fill="#fff"/></svg>