<svg width="174" height="174" fill="none" xmlns="http://www.w3.org/2000/svg"><g filter="url(#a)"><path d="M63.438 151.81c-.951 2.616-3.851 3.981-6.396 2.855a74.002 74.002 0 0 1-14.976-126.46 74.001 74.001 0 0 1 44.4-15.203c2.783-.02 4.9 2.387 4.73 5.165-.17 2.778-2.561 4.872-5.344 4.922a63.923 63.923 0 0 0-25.356 122.079c2.532 1.154 3.893 4.027 2.942 6.642Z" fill="#fff"/></g><path d="M61.716 156.546A73.996 73.996 0 0 1 13.93 75.304a74 74 0 0 1 70.757-62.268l.315 10.074a63.921 63.921 0 0 0-19.843 123.964l-3.443 9.472Z" fill="#fff"/><g filter="url(#b)"><path d="M84.446 18.087c-.103-2.782 2.07-5.138 4.852-5.051A74 74 0 1 1 60.315 156.02c-2.595-1.003-3.68-4.02-2.502-6.541 1.178-2.522 4.172-3.591 6.778-2.615a63.914 63.914 0 0 0 73.22-21.082 63.927 63.927 0 0 0-25.045-97.28 63.92 63.92 0 0 0-23.095-5.369c-2.781-.116-5.122-2.266-5.225-5.047Z" fill="#32D74B"/></g><g filter="url(#c)"><path d="M84.26 13.05a74 74 0 1 1-28.58 140.995l4.266-9.131a63.917 63.917 0 0 0 55.826-.834 63.92 63.92 0 0 0-31.14-120.958l-.373-10.071Z" fill="#32D74B"/></g><defs><filter id="a" x=".537" y=".539" width="103.132" height="166.987" filterUnits="userSpaceOnUse" color-interpolation-filters="sRGB"><feFlood flood-opacity="0" result="BackgroundImageFix"/><feBlend in="SourceGraphic" in2="BackgroundImageFix" result="shape"/><feGaussianBlur stdDeviation="6.232" result="effect1_foregroundBlur_49_1159"/></filter><filter id="b" x="44.876" y=".57" width="128.587" height="172.893" filterUnits="userSpaceOnUse" color-interpolation-filters="sRGB"><feFlood flood-opacity="0" result="BackgroundImageFix"/><feBlend in="SourceGraphic" in2="BackgroundImageFix" result="shape"/><feGaussianBlur stdDeviation="6.232" result="effect1_foregroundBlur_49_1159"/></filter><filter id="c" x="49.449" y="13" width="117.782" height="160.463" filterUnits="userSpaceOnUse" color-interpolation-filters="sRGB"><feFlood flood-opacity="0" result="BackgroundImageFix"/><feColorMatrix in="SourceAlpha" values="0 0 0 0 0 0 0 0 0 0 0 0 0 0 0 0 0 0 127 0" result="hardAlpha"/><feOffset dy="6.232"/><feGaussianBlur stdDeviation="3.116"/><feComposite in2="hardAlpha" operator="out"/><feColorMatrix values="0 0 0 0 0 0 0 0 0 0 0 0 0 0 0 0 0 0 0.25 0"/><feBlend in2="BackgroundImageFix" result="effect1_dropShadow_49_1159"/><feBlend in="SourceGraphic" in2="effect1_dropShadow_49_1159" result="shape"/></filter></defs></svg>