<svg width="300" height="464" xmlns="http://www.w3.org/2000/svg"><defs><linearGradient y2="1.417" x2=".251" y1=".107" x1=".251" id="b"><stop stop-opacity=".01" stop-color="#FA7DFD"/><stop stop-opacity=".24" stop-color="#C37BFC" offset=".494"/><stop stop-color="#FBF079" offset="1"/></linearGradient><linearGradient y2="1.083" x2="-.192" y1=".112" x1="-.192" id="c"><stop stop-opacity=".01" stop-color="#F37DFD"/><stop stop-opacity=".24" stop-color="#F97BFC" offset=".494"/><stop stop-color="#F879FB" offset="1"/></linearGradient><linearGradient y2="1.182" x2="-.192" y1=".122" x1="-.192" id="d"><stop stop-opacity=".01" stop-color="#F37DFD"/><stop stop-opacity=".24" stop-color="#F97BFC" offset=".494"/><stop stop-color="#D9A0DA" offset="1"/></linearGradient><linearGradient y2="1.355" x2=".11" y1=".116" x1=".262" id="e"><stop stop-opacity=".01" stop-color="#FA7DFD"/><stop stop-opacity=".24" stop-color="#C37BFC" offset=".494"/><stop stop-color="#FBF079" offset="1"/></linearGradient><filter color-interpolation-filters="sRGB" filterUnits="userSpaceOnUse" height="503.441" width="354.466" y="51.635" x="254.939" id="a"><feGaussianBlur stdDeviation="10"/></filter></defs><path fill="none" d="M-1-1h302v466H-1z"/><g filter="url(#a)"><path stroke="#F9FAF9" fill="#020001" d="m203.289 459.991 80.141-46.619v-91.556l-80.141 48.035v90.14z"/><path stroke-width="7" stroke="#F9FAF9" fill="#020001" d="m203.289 459.991 80.141-46.619v-91.556l-80.141 48.035v90.14z"/><path stroke="#F9FAF9" fill="#020001" d="m201.905 459.991-74.614-43.258v-94.917l74.614 47.718v90.457z"/><path stroke-width="7" stroke="#F9FAF9" fill="#020001" d="m201.905 459.991-74.614-43.258v-94.917l74.614 47.718v90.457z"/><path stroke="#F9FAF9" d="m190.854 439.264-52.506-29.847v-65.493l52.506 32.925v62.415z" opacity=".4"/><path stroke="#F9FAF9" d="m190.854 439.264-52.506-29.847v-65.493l52.506 32.925v62.415z" opacity=".4"/><path fill="url(#b)" d="m204.877 312.142-39.384-22.48L2.939 2.635h208.738l26.958 287.027-33.758 22.48z" opacity=".405"/><path fill="url(#c)" d="m238.636 289.954 78.769-266.267H165.494l56.263 299.55 16.879-33.283z" opacity=".405"/><path stroke-width="7" stroke="#F9FAF9" fill="#020001" d="m127.291 321.689 78.42-41.325 77.717 40.635-79.712 49.178-76.425-48.488z"/><path stroke="#F9FAF9" fill="#020001" d="m165.98 324.357 39.144-21.885 38.234 21.213-39.222 24.385-38.156-23.713z"/></g><path stroke="#fff" fill="#020001" d="m204.668 459.991 80.141-46.619v-91.556l-80.141 48.035v90.14z"/><path stroke-width="3" stroke="#fff" fill="#020001" d="m206 459.382 79.294-46.351V322L206 369.759v89.623z"/><path stroke="#fff" fill="#020001" d="m203.284 459.991-74.614-43.258v-94.917l74.614 47.718v90.457z"/><path stroke-width="3" stroke="#fff" fill="#020001" d="m202.843 459.323-74.176-43.384-.509-93.999 74.685 47.364v90.019z"/><path stroke="#fff" d="m192.233 439.264-52.506-29.847v-65.493l52.506 32.925v62.415z" opacity=".4"/><path stroke-width="2" stroke="#fff" d="m192.233 439.264-52.506-29.847v-65.493l52.506 32.925v62.415z" opacity=".4"/><path stroke-width="3" stroke="#fff" fill="#020001" d="m129.543 319.635 76.679-41.867 77.3 41.867-79.295 47.946-74.684-47.946z"/><path stroke="#fff" fill="#020001" d="m167.361 324.357 39.144-21.885 38.234 21.213-39.222 24.385-38.156-23.713z"/><path fill="url(#d)" d="m218.304 339.432 78.769-266.267H145.162l39.61 262.098 20.647 12.22 12.885-8.051z" opacity=".405"/><path fill="url(#e)" d="m205.419 347.904-20.648-12.642-16.855-10.955L28.547 21.757l208.057 16.839 7.582 285.289-38.767 24.019z" opacity=".405"/><path stroke-width="3" stroke="#9A4EF5" d="M172.031 97 151 109.221v25.293l21.031 13.074 21.599-13.074v-25.293L172.031 97z"/><path stroke-width="2" stroke="#9B4FF6" d="M151 128.918c.358-.364 7.02-10.458 10.306-15.459l1.344-1.364 2.688-.909h16.693l.443.443 11.083 11.526m-38.123 14.185 15.958-26.154m-8.423 30.587 19.062-30.587m-11.525 18.175 11.969 11.969m-5.764-21.278 15.072 15.072"/><path stroke="#9B4FF6" d="M182.031 111.186 194 123.155"/></svg>