<svg width="320" height="470" xmlns="http://www.w3.org/2000/svg"><defs><linearGradient y2="1.417" x2=".251" y1=".107" x1=".251" id="b"><stop stop-opacity=".01" stop-color="#FA7DFD"/><stop stop-opacity=".24" stop-color="#C37BFC" offset=".494"/><stop stop-color="#FBF079" offset="1"/></linearGradient><linearGradient y2="1.083" x2="-.192" y1=".112" x1="-.192" id="c"><stop stop-opacity=".01" stop-color="#F37DFD"/><stop stop-opacity=".24" stop-color="#F97BFC" offset=".494"/><stop stop-color="#F879FB" offset="1"/></linearGradient><linearGradient y2="1.182" x2="-.192" y1=".122" x1="-.192" id="d"><stop stop-opacity=".01" stop-color="#F37DFD"/><stop stop-opacity=".24" stop-color="#F97BFC" offset=".494"/><stop stop-color="#D9A0DA" offset="1"/></linearGradient><linearGradient y2="1.355" x2=".11" y1=".116" x1=".262" id="e"><stop stop-opacity=".01" stop-color="#FA7DFD"/><stop stop-opacity=".24" stop-color="#C37BFC" offset=".494"/><stop stop-color="#FBF079" offset="1"/></linearGradient><filter color-interpolation-filters="sRGB" filterUnits="userSpaceOnUse" height="503.441" width="354.466" y="51.635" x="254.939" id="a"><feGaussianBlur stdDeviation="10"/></filter></defs><path fill="none" d="M-1-1h322v472H-1z"/><g filter="url(#a)"><path stroke="#F9FAF9" fill="#020001" d="m203.289 458.991 80.141-46.619v-91.556l-80.141 48.035v90.14z"/><path stroke-width="7" stroke="#F9FAF9" fill="#020001" d="m203.289 458.991 80.141-46.619v-91.556l-80.141 48.035v90.14z"/><path stroke="#F9FAF9" fill="#020001" d="m201.905 458.991-74.614-43.258v-94.917l74.614 47.718v90.457z"/><path stroke-width="7" stroke="#F9FAF9" fill="#020001" d="m201.905 458.991-74.614-43.258v-94.917l74.614 47.718v90.457z"/><path stroke="#F9FAF9" d="m190.854 438.264-52.506-29.847v-65.493l52.506 32.925v62.415z" opacity=".4"/><path stroke="#F9FAF9" d="m190.854 438.264-52.506-29.847v-65.493l52.506 32.925v62.415z" opacity=".4"/><path fill="url(#b)" d="m204.877 311.142-39.384-22.48L2.939 1.635h208.738l26.958 287.027-33.758 22.48z" opacity=".405"/><path fill="url(#c)" d="m238.636 288.954 78.769-266.267H165.494l56.263 299.55 16.879-33.283z" opacity=".405"/><path stroke-width="7" stroke="#F9FAF9" fill="#020001" d="m127.291 320.689 78.42-41.325 77.717 40.635-79.712 49.178-76.425-48.488z"/><path stroke="#F9FAF9" fill="#020001" d="m165.98 323.357 39.144-21.885 38.234 21.213-39.222 24.385-38.156-23.713z"/></g><path stroke="#fff" fill="#020001" d="m204.668 458.991 80.141-46.619v-91.556l-80.141 48.035v90.14z"/><path stroke-width="3" stroke="#fff" fill="#020001" d="m206 458.382 79.294-46.351V321L206 368.759v89.623z"/><path stroke="#fff" fill="#020001" d="m203.284 458.991-74.614-43.258v-94.917l74.614 47.718v90.457z"/><path stroke-width="3" stroke="#fff" fill="#020001" d="m202.843 458.323-74.176-43.384-.509-93.999 74.685 47.364v90.019z"/><path stroke="#fff" d="m192.233 438.264-52.506-29.847v-65.493l52.506 32.925v62.415z" opacity=".4"/><path stroke-width="2" stroke="#fff" d="m192.233 438.264-52.506-29.847v-65.493l52.506 32.925v62.415z" opacity=".4"/><path stroke-width="3" stroke="#fff" fill="#020001" d="m129.543 318.635 76.679-41.867 77.3 41.867-79.295 47.946-74.684-47.946z"/><path stroke="#fff" fill="#020001" d="m167.361 323.357 39.144-21.885 38.234 21.213-39.222 24.385-38.156-23.713z"/><path fill="url(#d)" d="m218.304 338.432 78.769-266.267H145.162l39.61 262.098 20.647 12.22 12.885-8.051z" opacity=".405"/><path fill="url(#e)" d="m205.419 346.904-20.648-12.642-16.855-10.955L28.547 20.757l208.057 16.839 7.582 285.289-38.767 24.019z" opacity=".405"/><path stroke-width="3" stroke="#9A4EF5" d="M172.031 96 151 108.221v25.293l21.031 13.074 21.599-13.074v-25.293L172.031 96z"/><path stroke-width="2" stroke="#9B4FF6" d="M151 127.918c.358-.364 7.02-10.458 10.306-15.459l1.344-1.364 2.688-.909h16.693l.443.443 11.083 11.526m-38.123 14.185 15.958-26.154m-8.423 30.587 19.062-30.587m-11.525 18.175 11.969 11.969m-5.764-21.278 15.072 15.072"/><path stroke="#9B4FF6" d="M182.031 110.186 194 122.155"/><path stroke-width="3" stroke="#9B4FF6" d="m104.123 207.834 27.134-47.212h2.17l8.14 15.737v3.256l-15.737 28.219-2.713 2.714h-17.366l-1.628-2.714zm33.104-.542v1.628l1.628 1.085 5.625.127 13.911-.127 1.628-1.085v-1.628l-10.311-16.823h-2.713l-9.768 16.823z"/><path stroke-width="3" stroke="#994EF4" d="m270.711 203.556-6.304-3.675-3.368 5.777 12.607 7.35 6.736-11.554-6.303-3.675-3.368 5.777zm-14.554-17.002-7.354-4.287-6.924 11.875 12.958 7.554 3.555-6.098-5.603-3.267 3.368-5.777zm18.544-4.325 3.555-6.098 12.607 7.35-3.555 6.098-12.607-7.35zm-19.612-11.433 3.556-6.098 12.607 7.35-3.556 6.098-12.607-7.35z"/><path stroke-width="3" stroke="#994EF3" d="m252.424 271.474-6.645-13.835.039 23.337 21.889-8.093-15.283-1.409zm-6.505 9.287 6.606-9.502"/><path stroke-width="3" stroke="#994EF3" d="m273.718 240.588-23.922 11.016 6.39 14.201 15.903 1.298 1.629-26.515z"/><path stroke-width="3" stroke="#984DF3" d="m205.278 233.924 2.329-3.945-4.051-8.156-2.301-1.359-10.085-.19-5.241 8.876 4.65 9.396 2.301 1.358 19.124.651 1.643.971 5.367 8.932-4.853 8.219-1.763.732-8.44.78-1.913-2.016-4.769-7.692-.539-2.092 1.747-2.959"/><path stroke-width="3" stroke="#9A4FF5" d="m219.254 173.687-4.803 4.877 4.803 4.876 5.097-4.876-5.097-4.877zm-17.213-.222-4.803 5.098 4.803 4.655 5.245-4.655-5.245-5.098z"/><path stroke-width="3" stroke="#9A4FF5" d="m193.543 182.184-4.729 4.876 13.521 13.52 13.521-13.52-5.098-4.876-8.423 8.496-8.792-8.496zm0-7.241-4.654-5.024 13.299-13.373 13.52 13.373-4.802 5.024-8.718-8.496-8.645 8.496zm-8.273-1.404c-1.503 1.527-4.552 4.64-4.729 4.876l4.729 5.098 4.654-5.098-4.654-4.876zm-57.803 67.449-8.703 15.601 18.348 32.206 18.047.157 9.256-15.92-18.902-31.886-18.046-.158z"/><path stroke-width="3" stroke="#9A4FF5" d="m118.764 256.589 17.677.37 9.072-15.814m.459 31.466-9.529-15.652 16.493.317-6.964 15.335zm-9.531-15.651-7.342 14.788 17.025 2.128"/><circle stroke-width="3" stroke="#984DF3" r="19.119" cy="127.619" cx="244.619"/><path stroke-width="2" stroke="#984DF3" d="m234.368 124.425-1.558 7.372 1.309 1.534.428.377 4.453.125 3.094-2.215 1.557-7.372-.906-1.56-.881-1.157-4.025.253-.403.025-3.068 2.618z"/><path stroke-linecap="round" stroke-width="2" stroke="#984DF3" d="M245.931 133.595c-.012-.167.266-2.448.603-5.116.293-2.317.631-4.926.862-6.696"/><path stroke-linecap="round" stroke-width="2" stroke="#984DF3" d="M246.563 129.175s6.228.706 7.466-.516c1.237-1.223 2.033-4.881-.066-6.223-1.671-.996-4.001-.986-6.581-.711"/></svg>