<svg width="52" height="52" fill="none" xmlns="http://www.w3.org/2000/svg"><path d="M20.584 29.792c0 2.101 1.625 3.791 3.618 3.791h4.073c1.734 0 3.142-1.473 3.142-3.315 0-1.971-.867-2.686-2.145-3.141l-6.522-2.275c-1.278-.455-2.145-1.149-2.145-3.142 0-1.82 1.409-3.315 3.142-3.315h4.073c1.994 0 3.619 1.69 3.619 3.792M26 16.25v19.5" stroke="#9B4FF6" stroke-width="3.5" stroke-linecap="round" stroke-linejoin="round"/><path d="M47.667 26c0 11.96-9.707 21.667-21.667 21.667S4.334 37.96 4.334 26 14.04 4.334 26 4.334M47.667 13V4.333H39m-2.166 10.834L47.666 4.333" stroke="#9B4FF6" stroke-width="3.5" stroke-linecap="round" stroke-linejoin="round"/></svg>