<svg width="1218" height="556" fill="none" xmlns="http://www.w3.org/2000/svg"><g filter="url(#a)"><path d="m475.289 528.991 80.141-46.619v-91.556l-80.141 48.035v90.14Z" fill="#020001" stroke="#F9FAF9"/><path d="m475.289 528.991 80.141-46.619v-91.556l-80.141 48.035v90.14Z" fill="#020001" stroke="#F9FAF9" stroke-width="7"/><path d="m473.905 528.991-74.614-43.258v-94.917l74.614 47.718v90.457Z" fill="#020001" stroke="#F9FAF9"/><path d="m473.905 528.991-74.614-43.258v-94.917l74.614 47.718v90.457Z" fill="#020001" stroke="#F9FAF9" stroke-width="7"/><path opacity=".4" d="m462.854 508.264-52.506-29.847v-65.493l52.506 32.925v62.415Z" stroke="#F9FAF9"/><path opacity=".4" d="m462.854 508.264-52.506-29.847v-65.493l52.506 32.925v62.415Z" stroke="#F9FAF9"/><path opacity=".405" d="m476.877 381.142-39.384-22.48L274.939 71.635h208.738l26.958 287.027-33.758 22.48Z" fill="url(#b)"/><path opacity=".405" d="m510.636 358.954 78.769-266.267H437.494l56.263 299.55 16.879-33.283Z" fill="url(#c)"/><path d="m399.291 390.689 78.42-41.325 77.717 40.635-79.712 49.178-76.425-48.488Z" fill="#020001" stroke="#F9FAF9" stroke-width="7"/><path d="m437.98 393.357 39.144-21.885 38.234 21.213-39.222 24.385-38.156-23.713Z" fill="#020001" stroke="#F9FAF9"/></g><path d="m476.668 528.991 80.141-46.619v-91.556l-80.141 48.035v90.14Z" fill="#020001" stroke="#fff"/><path d="m478 528.382 79.294-46.351V391L478 438.759v89.623Z" fill="#020001" stroke="#fff" stroke-width="3"/><path d="m475.284 528.991-74.614-43.258v-94.917l74.614 47.718v90.457Z" fill="#020001" stroke="#fff"/><path d="m474.843 528.323-74.176-43.384-.509-93.999 74.685 47.364v90.019Z" fill="#020001" stroke="#fff" stroke-width="3"/><path opacity=".4" d="m464.233 508.264-52.506-29.847v-65.493l52.506 32.925v62.415Z" stroke="#fff"/><path opacity=".4" d="m464.233 508.264-52.506-29.847v-65.493l52.506 32.925v62.415Z" stroke="#fff" stroke-width="2"/><path d="m401.543 388.635 76.679-41.867 77.3 41.867-79.295 47.946-74.684-47.946Z" fill="#020001" stroke="#fff" stroke-width="3"/><path d="m439.361 393.357 39.144-21.885 38.234 21.213-39.222 24.385-38.156-23.713Z" fill="#020001" stroke="#fff"/><path opacity=".405" d="m490.304 408.432 78.769-266.267H417.162l39.61 262.098 20.647 12.22 12.885-8.051Z" fill="url(#d)"/><path opacity=".405" d="m477.419 416.904-20.648-12.642-16.855-10.955-139.369-302.55 208.057 16.839 7.582 285.289-38.767 24.019Z" fill="url(#e)"/><path d="M444.031 166 423 178.221v25.293l21.031 13.074 21.599-13.074v-25.293L444.031 166Z" stroke="#9A4EF5" stroke-width="3"/><path d="M423 197.918c.358-.364 7.02-10.458 10.306-15.459l1.344-1.364 2.688-.909h16.693l.443.443 11.083 11.526m-38.123 14.185 15.958-26.154m-8.423 30.587 19.062-30.587m-11.525 18.175 11.969 11.969m-5.764-21.278 15.072 15.072" stroke="#9B4FF6" stroke-width="2"/><path d="M454.031 180.186 466 192.155" stroke="#9B4FF6"/><defs><linearGradient id="b" x1="334.208" y1="104.646" x2="334.208" y2="510.172" gradientUnits="userSpaceOnUse"><stop stop-color="#FA7DFD" stop-opacity=".01"/><stop offset=".494" stop-color="#C37BFC" stop-opacity=".24"/><stop offset="1" stop-color="#FBF079"/></linearGradient><linearGradient id="c" x1="408.341" y1="126.212" x2="408.341" y2="416.961" gradientUnits="userSpaceOnUse"><stop stop-color="#F37DFD" stop-opacity=".01"/><stop offset=".494" stop-color="#F97BFC" stop-opacity=".24"/><stop offset="1" stop-color="#F879FB"/></linearGradient><linearGradient id="d" x1="388.009" y1="175.69" x2="388.009" y2="466.439" gradientUnits="userSpaceOnUse"><stop stop-color="#F37DFD" stop-opacity=".01"/><stop offset=".494" stop-color="#F97BFC" stop-opacity=".24"/><stop offset="1" stop-color="#D9A0DA"/></linearGradient><linearGradient id="e" x1="356.959" y1="128.442" x2="324.244" y2="532.646" gradientUnits="userSpaceOnUse"><stop stop-color="#FA7DFD" stop-opacity=".01"/><stop offset=".494" stop-color="#C37BFC" stop-opacity=".24"/><stop offset="1" stop-color="#FBF079"/></linearGradient><filter id="a" x="254.939" y="51.635" width="354.466" height="503.441" filterUnits="userSpaceOnUse" color-interpolation-filters="sRGB"><feFlood flood-opacity="0" result="BackgroundImageFix"/><feBlend in="SourceGraphic" in2="BackgroundImageFix" result="shape"/><feGaussianBlur stdDeviation="10" result="effect1_foregroundBlur_6_185"/></filter></defs></svg>