<svg width="20" height="20" fill="none" xmlns="http://www.w3.org/2000/svg"><path d="m18.085 14.001-1.094 3.7-2.148-.588 3.242-3.112Zm-3.242 3.112 2.072-2.838 1.17-.274-3.242 3.112Z" fill="#E4761B" stroke="#E4761B" stroke-width=".045"/><path d="m16.474 11.21 1.61 2.789-1.17.274-.44-3.063Zm0 0 1.035-.718.575 3.507-1.61-2.79Z" fill="#F6851B" stroke="#F6851B" stroke-width=".045"/><path d="m15.156 9.104 2.978-1.22-.148.668-2.83.552Zm2.736.25-2.736-.25 2.83-.552-.094.803Z" fill="#763D16" stroke="#763D16" stroke-width=".045"/><path d="m17.892 9.355-.381 1.139-2.355-1.39 2.736.25Zm.596-1.189-.502.386.148-.668.354.282Zm-.596 1.189.094-.803.399.332-.493.47Z" fill="#763D16" stroke="#763D16" stroke-width=".045"/><path d="m12.536 16.211.745.238 1.565.664-2.31-.902Z" fill="#E2761B" stroke="#E2761B" stroke-width=".045"/><path d="m17.51 10.493.382-1.14.327.252-.708.888Zm0 0-3.09-1.018.736-.372 2.355 1.39Z" fill="#763D16" stroke="#763D16" stroke-width=".045"/><path d="m15.892 5.61-.736 3.494-.735.372 1.47-3.866Zm2.242 2.274-2.978 1.22.736-3.494 2.242 2.274ZM15.893 5.61 19 5.251l-.865 2.633-2.242-2.274Z" fill="#763D16" stroke="#763D16" stroke-width=".045"/><path d="m17.51 10.493-1.035.718-2.054-1.736 3.09 1.018Z" fill="#F6851B" stroke="#F6851B" stroke-width=".045"/><path d="M18.866 2.737 19 5.253l-3.107.358 2.973-2.874Z" fill="#763D16" stroke="#763D16" stroke-width=".045"/><path d="m18.866 2.737-6.211 4.516-.08-3.063 6.29-1.453Z" fill="#E2761B" stroke="#E2761B" stroke-width=".045"/><path d="m7.956 3.822 4.619.367.08 3.063-4.699-3.43Z" fill="#F6851B" stroke="#F6851B" stroke-width=".045"/><path d="m14.42 9.476-1.767-2.224 3.238-1.642-1.47 3.866Z" fill="#763D16" stroke="#763D16" stroke-width=".045"/><path d="m14.42 9.475 2.054 1.736-2.883.318.83-2.054Zm-.83 2.055-.937-4.279 1.767 2.224-.83 2.054Z" fill="#E4761B" stroke="#E4761B" stroke-width=".045"/><path d="m15.891 5.611-3.238 1.642 6.211-4.516-2.973 2.874Z" fill="#763D16" stroke="#763D16" stroke-width=".045"/><path d="m7.993 17.042 1.466 1.53-1.995-1.817.529.287Z" fill="#C0AD9E" stroke="#C0AD9E" stroke-width=".045"/><path d="m14.843 17.114.695-2.641 1.377-.198-2.072 2.839Z" fill="#CD6116" stroke="#CD6116" stroke-width=".045"/><path d="m2.05 9.682 2.538-2.668-2.21 2.35-.328.318Z" fill="#E2761B" stroke="#E2761B" stroke-width=".045"/><path d="m16.916 14.275-1.377.197.938-3.26.439 3.063Zm-4.26-7.023-2.471-.08-2.229-3.35 4.7 3.43Z" fill="#F6851B" stroke="#F6851B" stroke-width=".045"/><path d="m16.474 11.212-.937 3.26-.076-1.592 1.013-1.668Z" fill="#E4751F" stroke="#E4751F" stroke-width=".045"/><path d="m13.59 11.53 2.884-.318-1.013 1.668-1.87-1.35Z" fill="#CD6116" stroke="#CD6116" stroke-width=".045"/><path d="m10.183 7.171 2.47.081.938 4.278-3.408-4.359Z" fill="#F6851B" stroke="#F6851B" stroke-width=".045"/><path d="m10.184 7.171-6.668-6.17 4.44 2.82 2.228 3.35ZM7.951 17.978l-5.794 1.794L1 15.355l6.95 2.623Z" fill="#E4761B" stroke="#E4761B" stroke-width=".045"/><path d="m2.908 10.785 2.189-1.718 1.834.426-4.023 1.292Z" fill="#763D16" stroke="#763D16" stroke-width=".045"/><path d="m6.93 9.495-1.833-.426.982-4.054.852 4.48Z" fill="#763D16" stroke="#763D16" stroke-width=".045"/><path d="M2.378 9.363 5.1 9.067l-2.188 1.718-.534-1.422Z" fill="#763D16" stroke="#763D16" stroke-width=".045"/><path d="m15.46 12.878-1.13-.57-.74-.78 1.87 1.35Z" fill="#CD6116" stroke="#CD6116" stroke-width=".045"/><path d="m2.378 9.363-.192-1.018 2.914.722-2.722.296Z" fill="#763D16" stroke="#763D16" stroke-width=".045"/><path d="m14.102 13.591.233-1.282 1.13.57-1.363.712Z" fill="#233447" stroke="#233447" stroke-width=".045"/><path d="m15.541 14.473-1.44-.88 1.364-.712.076 1.592Z" fill="#F6851B" stroke="#F6851B" stroke-width=".045"/><path d="m5.1 9.069-2.915-.722-.238-.857L5.1 9.07Zm.982-4.054L5.1 9.069 1.947 7.49l4.135-2.475Zm0 0 4.103 2.157-3.251 2.323-.852-4.48Z" fill="#763D16" stroke="#763D16" stroke-width=".045"/><path d="m6.935 9.494 3.25-2.323 1.45 4.426-4.7-2.103Zm4.7 2.104-4.494-.095-.206-2.009 4.7 2.104Z" fill="#E4761B" stroke="#E4761B" stroke-width=".045"/><path d="m2.908 10.786 4.023-1.292.206 2.01-4.229-.718Zm10.682.744-1.96.068-1.448-4.427 3.408 4.36Z" fill="#F6851B" stroke="#F6851B" stroke-width=".045"/><path d="m14.33 12.309-.232 1.282-.507-2.063.74.78Z" fill="#CD6116" stroke="#CD6116" stroke-width=".045"/><path d="m3.518 1 6.668 6.17-4.103-2.156L3.518 1Z" fill="#763D16" stroke="#763D16" stroke-width=".045"/><path d="m1 15.355 5.623-.233 1.328 2.856L1 15.355Z" fill="#E4761B" stroke="#E4761B" stroke-width=".045"/><path d="M7.948 17.979 6.62 15.122l2.763-.134-1.435 2.99Z" fill="#CD6116" stroke="#CD6116" stroke-width=".045"/><path d="m14.099 13.592 1.44.88.793 1.87-2.233-2.75Zm-6.96-2.09L1 15.356l1.91-4.57 4.23.718Zm-.516 3.62L1 15.355l6.14-3.852-.517 3.619Zm6.97-3.592.367 1.336-1.776.103 1.408-1.44Zm-1.409 1.44-.551-1.373 1.96-.067-1.409 1.44Z" fill="#F6851B" stroke="#F6851B" stroke-width=".045"/><path d="m9.463 18.57-1.51-.591 5.255.883-3.745-.291Z" fill="#C0AD9E" stroke="#C0AD9E" stroke-width=".045"/><path d="m2.91 10.784-.86-1.103.327-.318.534 1.421Z" fill="#763D16" stroke="#763D16" stroke-width=".045"/><path d="m13.804 18.207-.596.655-5.256-.883 5.852.228Z" fill="#D7C1B3" stroke="#D7C1B3" stroke-width=".045"/><path d="M14.087 16.602 7.952 17.98l1.435-2.991 4.7 1.614Z" fill="#E4761B" stroke="#E4761B" stroke-width=".045"/><path d="m7.952 17.98 6.135-1.378-.283 1.606-5.852-.229Z" fill="#D7C1B3" stroke="#D7C1B3" stroke-width=".045"/><path d="M1.947 7.489 1.745 4.04l4.337.973L1.947 7.49Zm.43 1.874-.596-.605.404-.413.192 1.018Z" fill="#763D16" stroke="#763D16" stroke-width=".045"/><path d="m10.628 12.484 1.004-.888-.143 2.17-.861-1.282Z" fill="#CD6116" stroke="#CD6116" stroke-width=".045"/><path d="m11.632 11.596-1.004.888-1.462.758 2.466-1.646Z" fill="#CD6116" stroke="#CD6116" stroke-width=".045"/><path d="m16.335 16.342-.274-.202-1.96-2.547 2.234 2.75Z" fill="#F6851B" stroke="#F6851B" stroke-width=".045"/><path d="m9.168 13.242-2.027-1.74 4.493.095-2.466 1.645Z" fill="#CD6116" stroke="#CD6116" stroke-width=".045"/><path d="m11.491 13.767.144-2.17.551 1.371-.695.799Z" fill="#E4751F" stroke="#E4751F" stroke-width=".045"/><path d="m1.581 7.83.363-.34.238.856-.6-.515Z" fill="#763D16" stroke="#763D16" stroke-width=".045"/><path d="m11.489 13.767-2.323-.525 1.462-.758.86 1.283Z" fill="#233447" stroke="#233447" stroke-width=".045"/><path d="M6.082 5.014 1.745 4.04 3.516 1l2.566 4.014Z" fill="#763D16" stroke="#763D16" stroke-width=".045"/><path d="m13.205 18.86.247.674-3.991-.965 3.744.292Z" fill="#C0AD9E" stroke="#C0AD9E" stroke-width=".045"/><path d="m9.386 14.986-.22-1.744 2.323.524-2.103 1.22Z" fill="#F6851B" stroke="#F6851B" stroke-width=".045"/><path d="m7.14 11.502 2.028 1.74.22 1.745-2.247-3.485Z" fill="#E4751F" stroke="#E4751F" stroke-width=".045"/><path d="m12.18 12.969 1.777-.103 2.098 3.273-3.874-3.17Zm-5.044-1.467 2.247 3.485-2.763.134.516-3.619Z" fill="#F6851B" stroke="#F6851B" stroke-width=".045"/><path d="m12.186 12.97 2.207 3.359-2.902-2.561.695-.798Z" fill="#E4751F" stroke="#E4751F" stroke-width=".045"/><path d="m11.491 13.767 2.902 2.56-.305.274-2.597-2.834Zm2.594 2.835-4.7-1.614 2.104-1.22 2.596 2.834Zm1.974-.462-1.669.189-2.206-3.36 3.875 3.171Z" fill="#F6851B" stroke="#F6851B" stroke-width=".045"/><path d="m16.499 17.718-.718 1.44-2.327.377 3.045-1.817Zm-3.045 1.817-.247-.673.596-.655-.35 1.328Z" fill="#C0AD9E" stroke="#C0AD9E" stroke-width=".045"/><path d="m13.805 18.207.44-.175-.79 1.503.35-1.328Zm-.35 1.328.79-1.503 2.255-.314-3.045 1.817Z" fill="#C0AD9E" stroke="#C0AD9E" stroke-width=".045"/><path d="m16.057 16.141.552.336-1.677.202 1.125-.538Z" fill="#161616" stroke="#161616" stroke-width=".045"/><path d="m14.93 16.68-.542-.35 1.668-.189-1.126.538Zm-.192.264 2.04-.247-.283 1.023-1.758-.776Z" fill="#161616" stroke="#161616" stroke-width=".045"/><path d="m16.497 17.719-2.256.314.498-1.09 1.758.776Zm-2.256.314-.44.175.283-1.606.157 1.43Zm-.157-1.43.305-.274.543.35-.848-.077Zm2.525-.126.17.22-2.04.246 1.87-.466Z" fill="#161616" stroke="#161616" stroke-width=".045"/><path d="m14.738 16.942.193-.264 1.677-.202-1.87.466Zm-.655-.34.655.34-.498 1.09-.157-1.43Z" fill="#161616" stroke="#161616" stroke-width=".045"/><path d="m14.93 16.679-.192.264-.655-.34.848.076Z" fill="#161616" stroke="#161616" stroke-width=".045"/></svg>