<svg width="51" height="52" fill="none" xmlns="http://www.w3.org/2000/svg"><path d="M35.73 13.368c4.124 3.012 6.97 7.8 7.547 13.325m-35.327.109c.536-5.504 3.34-10.292 7.424-13.325m2.269 31.893a16.896 16.896 0 0 0 7.98 1.994c2.764 0 5.363-.65 7.693-1.842m-7.692-28.839c3.166 0 5.733-2.696 5.733-6.023 0-3.327-2.567-6.023-5.733-6.023-3.167 0-5.734 2.696-5.734 6.023 0 3.327 2.567 6.023 5.734 6.023ZM10.713 43.16c3.167 0 5.734-2.697 5.734-6.023 0-3.327-2.567-6.024-5.734-6.024-3.166 0-5.733 2.697-5.733 6.024 0 3.326 2.567 6.023 5.733 6.023Zm29.574 0c3.166 0 5.733-2.697 5.733-6.023 0-3.327-2.567-6.024-5.733-6.024-3.166 0-5.733 2.697-5.733 6.024 0 3.326 2.567 6.023 5.733 6.023Z" stroke="#9B4FF6" stroke-width="3.5" stroke-linecap="round" stroke-linejoin="round"/></svg>