<svg width="15" height="19" viewBox="0 0 15 19" fill="none" xmlns="http://www.w3.org/2000/svg">
<path d="M8.0853 18.8099L14.7604 13.5076C14.9149 13.3849 15 13.2212 15 13.0467C15 12.8721 14.9149 12.7084 14.7604 12.5858L14.2689 12.1953C13.9487 11.9412 13.4282 11.9412 13.1084 12.1953L7.50311 16.6478L1.89157 12.1903C1.73706 12.0677 1.53109 12 1.31145 12C1.09158 12 0.885603 12.0677 0.73097 12.1903L0.239634 12.5808C0.0851221 12.7036 9.15769e-07 12.8672 9.08139e-07 13.0417C9.00508e-07 13.2163 0.085122 13.38 0.239633 13.5026L6.9208 18.8099C7.0758 18.9329 7.28275 19.0004 7.50274 19C7.7236 19.0004 7.93042 18.9329 8.0853 18.8099Z" fill="white"/>
<rect x="8.5" width="17" height="2" rx="1" transform="rotate(90 8.5 0)" fill="white"/>
</svg>
