<svg width="19" height="15" viewBox="0 0 19 15" fill="none" xmlns="http://www.w3.org/2000/svg">
<path d="M18.8099 6.9147L13.5076 0.239632C13.3849 0.0851213 13.2212 0 13.0467 0C12.8721 0 12.7084 0.0851213 12.5858 0.239632L12.1953 0.731092C11.9412 1.05133 11.9412 1.57182 12.1953 1.89157L16.6478 7.49689L12.1903 13.1084C12.0677 13.2629 12 13.4689 12 13.6885C12 13.9084 12.0677 14.1144 12.1903 14.269L12.5808 14.7604C12.7036 14.9149 12.8672 15 13.0417 15C13.2163 15 13.38 14.9149 13.5026 14.7604L18.8099 8.0792C18.9329 7.9242 19.0004 7.71725 19 7.49726C19.0004 7.2764 18.9329 7.06958 18.8099 6.9147Z" fill="white"/>
<rect y="6.5" width="17" height="2" rx="1" fill="white"/>
</svg>
