<svg width="20" height="20" viewBox="0 0 20 20" fill="none" xmlns="http://www.w3.org/2000/svg">
<path d="M18.085 14.001L16.9908 17.7006L14.8428 17.1132L18.085 14.001Z" fill="#E4761B" stroke="#E4761B" stroke-width="0.0448442"/>
<path d="M14.8428 17.1132L16.9146 14.2745L18.085 14.001L14.8428 17.1132Z" fill="#E4761B" stroke="#E4761B" stroke-width="0.0448442"/>
<path d="M16.4736 11.2097L18.0835 13.999L16.9131 14.2726L16.4736 11.2097ZM16.4736 11.2097L17.5095 10.4922L18.0835 13.999L16.4736 11.2097Z" fill="#F6851B" stroke="#F6851B" stroke-width="0.0448442"/>
<path d="M15.1562 9.10355L18.1339 7.88379L17.9859 8.55197L15.1562 9.10355ZM17.8917 9.35468L15.1562 9.10355L17.9859 8.55197L17.8917 9.35468Z" fill="#763D16" stroke="#763D16" stroke-width="0.0448442"/>
<path d="M17.8917 9.35468L17.5106 10.4937L15.1562 9.10355L17.8917 9.35468ZM18.4882 8.16631L17.9859 8.55197L18.1339 7.88379L18.4882 8.16631ZM17.8917 9.35468L17.9859 8.55197L18.385 8.88382L17.8917 9.35468Z" fill="#763D16" stroke="#763D16" stroke-width="0.0448442"/>
<path d="M12.5361 16.2114L13.2805 16.4491L14.8456 17.1128L12.5361 16.2114Z" fill="#E2761B" stroke="#E2761B" stroke-width="0.0448442"/>
<path d="M17.5107 10.4927L17.8918 9.35367L18.2192 9.60479L17.5107 10.4927ZM17.5107 10.4927L14.4209 9.47475L15.1563 9.10254L17.5107 10.4927Z" fill="#763D16" stroke="#763D16" stroke-width="0.0448442"/>
<path d="M15.8918 5.61035L15.1563 9.10372L14.4209 9.47592L15.8918 5.61035Z" fill="#763D16" stroke="#763D16" stroke-width="0.0448442"/>
<path d="M18.1339 7.88395L15.1562 9.10371L15.8917 5.61035L18.1339 7.88395Z" fill="#763D16" stroke="#763D16" stroke-width="0.0448442"/>
<path d="M15.8926 5.61022L19.0003 5.25146L18.1348 7.88382L15.8926 5.61022Z" fill="#763D16" stroke="#763D16" stroke-width="0.0448442"/>
<path d="M17.5107 10.4931L16.4748 11.2106L14.4209 9.4751L17.5107 10.4931Z" fill="#F6851B" stroke="#F6851B" stroke-width="0.0448442"/>
<path d="M18.8657 2.73682L19.0003 5.25258L15.8926 5.61133L18.8657 2.73682Z" fill="#763D16" stroke="#763D16" stroke-width="0.0448442"/>
<path d="M18.8659 2.73682L12.6549 7.25263L12.5742 4.18977L18.8659 2.73682Z" fill="#E2761B" stroke="#E2761B" stroke-width="0.0448442"/>
<path d="M7.95605 3.82178L12.575 4.1895L12.6557 7.25236L7.95605 3.82178Z" fill="#F6851B" stroke="#F6851B" stroke-width="0.0448442"/>
<path d="M14.4202 9.47592L12.6533 7.25165L15.8911 5.61035L14.4202 9.47592Z" fill="#763D16" stroke="#763D16" stroke-width="0.0448442"/>
<path d="M14.4204 9.4751L16.4743 11.2106L13.5908 11.529L14.4204 9.4751Z" fill="#E4761B" stroke="#E4761B" stroke-width="0.0448442"/>
<path d="M13.5906 11.5291L12.6533 7.25098L14.4202 9.47525L13.5906 11.5291Z" fill="#E4761B" stroke="#E4761B" stroke-width="0.0448442"/>
<path d="M15.8911 5.61133L12.6533 7.25263L18.8642 2.73682L15.8911 5.61133Z" fill="#763D16" stroke="#763D16" stroke-width="0.0448442"/>
<path d="M7.99303 17.0419L9.45943 18.5711L7.46387 16.7549L7.99303 17.0419Z" fill="#C0AD9E" stroke="#C0AD9E" stroke-width="0.0448442"/>
<path d="M14.8428 17.114L15.5379 14.4727L16.9146 14.2754L14.8428 17.114Z" fill="#CD6116" stroke="#CD6116" stroke-width="0.0448442"/>
<path d="M2.0498 9.68239L4.58799 7.01416L2.37717 9.364L2.0498 9.68239Z" fill="#E2761B" stroke="#E2761B" stroke-width="0.0448442"/>
<path d="M16.9159 14.275L15.5392 14.4723L16.4765 11.2121L16.9159 14.275ZM12.6557 7.25236L10.1848 7.17164L7.95605 3.82178L12.6557 7.25236Z" fill="#F6851B" stroke="#F6851B" stroke-width="0.0448442"/>
<path d="M16.4744 11.2119L15.5372 14.4721L15.4609 12.8801L16.4744 11.2119Z" fill="#E4751F" stroke="#E4751F" stroke-width="0.0448442"/>
<path d="M13.5908 11.5303L16.4743 11.2119L15.4608 12.8801L13.5908 11.5303Z" fill="#CD6116" stroke="#CD6116" stroke-width="0.0448442"/>
<path d="M10.1826 7.17139L12.6535 7.25211L13.5908 11.5302L10.1826 7.17139Z" fill="#F6851B" stroke="#F6851B" stroke-width="0.0448442"/>
<path d="M10.1841 7.17105L3.51576 1.00049L7.95534 3.82119L10.1841 7.17105ZM7.95085 17.9785L2.15698 19.7723L1 15.3551L7.95085 17.9785Z" fill="#E4761B" stroke="#E4761B" stroke-width="0.0448442"/>
<path d="M2.9082 10.7849L5.0966 9.06738L6.93073 9.4934L2.9082 10.7849Z" fill="#763D16" stroke="#763D16" stroke-width="0.0448442"/>
<path d="M6.93081 9.49458L5.09668 9.06856L6.07877 5.01465L6.93081 9.49458Z" fill="#763D16" stroke="#763D16" stroke-width="0.0448442"/>
<path d="M2.37793 9.36335L5.09997 9.06738L2.91158 10.7849L2.37793 9.36335Z" fill="#763D16" stroke="#763D16" stroke-width="0.0448442"/>
<path d="M15.4608 12.8781L14.3307 12.3086L13.5908 11.5283L15.4608 12.8781Z" fill="#CD6116" stroke="#CD6116" stroke-width="0.0448442"/>
<path d="M2.37838 9.36318L2.18555 8.34521L5.10042 9.06721L2.37838 9.36318Z" fill="#763D16" stroke="#763D16" stroke-width="0.0448442"/>
<path d="M14.1016 13.5911L14.3348 12.3086L15.4648 12.8781L14.1016 13.5911Z" fill="#233447" stroke="#233447" stroke-width="0.0448442"/>
<path d="M15.5411 14.4728L14.1016 13.5939L15.4648 12.8809L15.5411 14.4728Z" fill="#F6851B" stroke="#F6851B" stroke-width="0.0448442"/>
<path d="M5.09981 9.06856L2.18494 8.34657L1.94727 7.49005L5.09981 9.06856ZM6.0819 5.01465L5.09981 9.06856L1.94727 7.49005L6.0819 5.01465ZM6.0819 5.01465L10.1851 7.17165L6.93394 9.49458L6.0819 5.01465Z" fill="#763D16" stroke="#763D16" stroke-width="0.0448442"/>
<path d="M6.93457 9.49432L10.1858 7.17139L11.6342 11.5975L6.93457 9.49432ZM11.6342 11.5975L7.14085 11.5033L6.93457 9.49432L11.6342 11.5975Z" fill="#E4761B" stroke="#E4761B" stroke-width="0.0448442"/>
<path d="M2.9082 10.7858L6.93073 9.49432L7.13701 11.5033L2.9082 10.7858ZM13.5901 11.5302L11.6304 11.5975L10.1819 7.17139L13.5901 11.5302Z" fill="#F6851B" stroke="#F6851B" stroke-width="0.0448442"/>
<path d="M14.3307 12.3086L14.0976 13.5912L13.5908 11.5283L14.3307 12.3086Z" fill="#CD6116" stroke="#CD6116" stroke-width="0.0448442"/>
<path d="M3.51758 1L10.1859 7.17056L6.08267 5.01356L3.51758 1Z" fill="#763D16" stroke="#763D16" stroke-width="0.0448442"/>
<path d="M1 15.3548L6.62346 15.1216L7.95085 17.9782L1 15.3548Z" fill="#E4761B" stroke="#E4761B" stroke-width="0.0448442"/>
<path d="M7.94751 17.9789L6.62012 15.1223L9.38252 14.9878L7.94751 17.9789Z" fill="#CD6116" stroke="#CD6116" stroke-width="0.0448442"/>
<path d="M14.099 13.5924L15.5385 14.4713L16.3322 16.3414L14.099 13.5924ZM7.13917 11.5027L1 15.3548L2.91036 10.7852L7.13917 11.5027ZM6.62346 15.1216L1 15.3548L7.13917 11.5027L6.62346 15.1216ZM13.5923 11.5296L13.96 12.8659L12.1841 12.9691L13.5923 11.5296ZM12.1841 12.9691L11.6326 11.5968L13.5923 11.5296L12.1841 12.9691Z" fill="#F6851B" stroke="#F6851B" stroke-width="0.0448442"/>
<path d="M9.4634 18.5705L7.95215 17.9785L13.2079 18.8619L9.4634 18.5705Z" fill="#C0AD9E" stroke="#C0AD9E" stroke-width="0.0448442"/>
<path d="M2.91081 10.7844L2.0498 9.68119L2.37717 9.36279L2.91081 10.7844Z" fill="#763D16" stroke="#763D16" stroke-width="0.0448442"/>
<path d="M13.8043 18.2072L13.2079 18.8619L7.95215 17.9785L13.8043 18.2072Z" fill="#D7C1B3" stroke="#D7C1B3" stroke-width="0.0448442"/>
<path d="M14.0868 16.6022L7.95215 17.9789L9.38716 14.9878L14.0868 16.6022Z" fill="#E4761B" stroke="#E4761B" stroke-width="0.0448442"/>
<path d="M7.95215 17.9793L14.0868 16.6025L13.8043 18.208L7.95215 17.9793Z" fill="#D7C1B3" stroke="#D7C1B3" stroke-width="0.0448442"/>
<path d="M1.94692 7.48856L1.74512 4.04004L6.08155 5.01316L1.94692 7.48856ZM2.37742 9.36305L1.78099 8.75765L2.18459 8.34508L2.37742 9.36305Z" fill="#763D16" stroke="#763D16" stroke-width="0.0448442"/>
<path d="M10.6279 12.4841L11.6324 11.5962L11.4889 13.7667L10.6279 12.4841Z" fill="#CD6116" stroke="#CD6116" stroke-width="0.0448442"/>
<path d="M11.6324 11.5962L10.6279 12.4841L9.16602 13.242L11.6324 11.5962Z" fill="#CD6116" stroke="#CD6116" stroke-width="0.0448442"/>
<path d="M16.3348 16.3422L16.0613 16.1404L14.1016 13.5933L16.3348 16.3422Z" fill="#F6851B" stroke="#F6851B" stroke-width="0.0448442"/>
<path d="M9.16758 13.2424L7.14062 11.5024L11.634 11.5966L9.16758 13.2424Z" fill="#CD6116" stroke="#CD6116" stroke-width="0.0448442"/>
<path d="M11.4912 13.7667L11.6347 11.5962L12.1863 12.9684L11.4912 13.7667Z" fill="#E4751F" stroke="#E4751F" stroke-width="0.0448442"/>
<path d="M1.58105 7.83056L1.94429 7.48975L2.18197 8.34627L1.58105 7.83056Z" fill="#763D16" stroke="#763D16" stroke-width="0.0448442"/>
<path d="M11.4889 13.7669L9.16602 13.2422L10.6279 12.4844L11.4889 13.7669Z" fill="#233447" stroke="#233447" stroke-width="0.0448442"/>
<path d="M6.08155 5.01356L1.74512 4.04044L3.51646 1L6.08155 5.01356Z" fill="#763D16" stroke="#763D16" stroke-width="0.0448442"/>
<path d="M13.2054 18.8608L13.4521 19.5335L9.46094 18.5693L13.2054 18.8608Z" fill="#C0AD9E" stroke="#C0AD9E" stroke-width="0.0448442"/>
<path d="M9.38575 14.9861L9.16602 13.2417L11.4889 13.7664L9.38575 14.9861Z" fill="#F6851B" stroke="#F6851B" stroke-width="0.0448442"/>
<path d="M7.14062 11.5024L9.16758 13.2424L9.38732 14.9868L7.14062 11.5024Z" fill="#E4751F" stroke="#E4751F" stroke-width="0.0448442"/>
<path d="M12.1808 12.9688L13.9566 12.8657L16.0553 16.1393L12.1808 12.9688ZM7.13583 11.5024L9.38252 14.9868L6.62012 15.1214L7.13583 11.5024Z" fill="#F6851B" stroke="#F6851B" stroke-width="0.0448442"/>
<path d="M12.1863 12.9697L14.3926 16.3286L11.4912 13.768L12.1863 12.9697Z" fill="#E4751F" stroke="#E4751F" stroke-width="0.0448442"/>
<path d="M11.4912 13.7666L14.3926 16.3272L14.0877 16.6008L11.4912 13.7666Z" fill="#F6851B" stroke="#F6851B" stroke-width="0.0448442"/>
<path d="M14.0854 16.6021L9.38574 14.9877L11.4889 13.768L14.0854 16.6021ZM16.0586 16.1402L14.3904 16.3286L12.184 12.9697L16.0586 16.1402Z" fill="#F6851B" stroke="#F6851B" stroke-width="0.0448442"/>
<path d="M16.4986 17.7183L15.7811 19.1578L13.4537 19.5345L16.4986 17.7183ZM13.4537 19.5345L13.207 18.8618L13.8035 18.2071L13.4537 19.5345Z" fill="#C0AD9E" stroke="#C0AD9E" stroke-width="0.0448442"/>
<path d="M13.8049 18.2071L14.2443 18.0322L13.4551 19.5345L13.8049 18.2071ZM13.4551 19.5345L14.2443 18.0322L16.5 17.7183L13.4551 19.5345Z" fill="#C0AD9E" stroke="#C0AD9E" stroke-width="0.0448442"/>
<path d="M16.0572 16.1411L16.6088 16.4774L14.9316 16.6792L16.0572 16.1411Z" fill="#161616" stroke="#161616" stroke-width="0.0448442"/>
<path d="M14.9303 16.6792L14.3877 16.3295L16.0559 16.1411L14.9303 16.6792ZM14.7375 16.9438L16.7779 16.6972L16.4954 17.7196L14.7375 16.9438Z" fill="#161616" stroke="#161616" stroke-width="0.0448442"/>
<path d="M16.4969 17.7188L14.2412 18.0327L14.739 16.943L16.4969 17.7188ZM14.2412 18.0327L13.8018 18.2076L14.0843 16.6022L14.2412 18.0327ZM14.0843 16.6022L14.3892 16.3286L14.9318 16.6784L14.0843 16.6022ZM16.609 16.4766L16.7794 16.6963L14.739 16.943L16.609 16.4766Z" fill="#161616" stroke="#161616" stroke-width="0.0448442"/>
<path d="M14.7377 16.9425L14.9306 16.6779L16.6077 16.4761L14.7377 16.9425ZM14.083 16.6016L14.7377 16.9425L14.24 18.0322L14.083 16.6016Z" fill="#161616" stroke="#161616" stroke-width="0.0448442"/>
<path d="M14.9306 16.6788L14.7377 16.9434L14.083 16.6025L14.9306 16.6788Z" fill="#161616" stroke="#161616" stroke-width="0.0448442"/>
</svg>
