<svg width="51" height="52" viewBox="0 0 51 52" fill="none" xmlns="http://www.w3.org/2000/svg">
<path d="M35.7292 13.3684C39.8539 16.3801 42.7 21.1684 43.2774 26.6934" stroke="#9B4FF6" stroke-width="3.5" stroke-linecap="round" stroke-linejoin="round"/>
<path d="M7.94946 26.8016C8.48567 21.2982 11.2905 16.5099 15.3739 13.4766" stroke="#9B4FF6" stroke-width="3.5" stroke-linecap="round" stroke-linejoin="round"/>
<path d="M17.6426 45.3701C20.0349 46.6485 22.7572 47.3635 25.6239 47.3635C28.3874 47.3635 30.986 46.7135 33.3164 45.5218" stroke="#9B4FF6" stroke-width="3.5" stroke-linecap="round" stroke-linejoin="round"/>
<path d="M25.6237 16.6834C28.7901 16.6834 31.357 13.9866 31.357 10.6601C31.357 7.33346 28.7901 4.63672 25.6237 4.63672C22.4573 4.63672 19.8904 7.33346 19.8904 10.6601C19.8904 13.9866 22.4573 16.6834 25.6237 16.6834Z" stroke="#9B4FF6" stroke-width="3.5" stroke-linecap="round" stroke-linejoin="round"/>
<path d="M10.7133 43.16C13.8797 43.16 16.4466 40.4632 16.4466 37.1366C16.4466 33.81 13.8797 31.1133 10.7133 31.1133C7.54688 31.1133 4.97998 33.81 4.97998 37.1366C4.97998 40.4632 7.54688 43.16 10.7133 43.16Z" stroke="#9B4FF6" stroke-width="3.5" stroke-linecap="round" stroke-linejoin="round"/>
<path d="M40.287 43.16C43.4535 43.16 46.0204 40.4632 46.0204 37.1366C46.0204 33.81 43.4535 31.1133 40.287 31.1133C37.1206 31.1133 34.5537 33.81 34.5537 37.1366C34.5537 40.4632 37.1206 43.16 40.287 43.16Z" stroke="#9B4FF6" stroke-width="3.5" stroke-linecap="round" stroke-linejoin="round"/>
</svg>
