<svg width="52" height="52" viewBox="0 0 52 52" fill="none" xmlns="http://www.w3.org/2000/svg">
<path d="M20.5835 29.7917C20.5835 31.8933 22.2085 33.5833 24.2019 33.5833H28.2751C30.0085 33.5833 31.4168 32.11 31.4168 30.2683C31.4168 28.2967 30.5502 27.5817 29.2718 27.1267L22.7502 24.8517C21.4718 24.3967 20.6052 23.7033 20.6052 21.71C20.6052 19.89 22.0135 18.395 23.7468 18.395H27.8202C29.8135 18.395 31.4385 20.085 31.4385 22.1867" stroke="#9B4FF6" stroke-width="3.5" stroke-linecap="round" stroke-linejoin="round"/>
<path d="M26 16.25V35.75" stroke="#9B4FF6" stroke-width="3.5" stroke-linecap="round" stroke-linejoin="round"/>
<path d="M47.6668 26.0002C47.6668 37.9602 37.9602 47.6668 26.0002 47.6668C14.0402 47.6668 4.3335 37.9602 4.3335 26.0002C4.3335 14.0402 14.0402 4.3335 26.0002 4.3335" stroke="#9B4FF6" stroke-width="3.5" stroke-linecap="round" stroke-linejoin="round"/>
<path d="M47.6667 12.9999V4.33325H39" stroke="#9B4FF6" stroke-width="3.5" stroke-linecap="round" stroke-linejoin="round"/>
<path d="M36.8335 15.1668L47.6668 4.3335" stroke="#9B4FF6" stroke-width="3.5" stroke-linecap="round" stroke-linejoin="round"/>
</svg>
