<svg width="30" height="30" viewBox="0 0 30 30" fill="none" xmlns="http://www.w3.org/2000/svg">
<path fill-rule="evenodd" clip-rule="evenodd" d="M0 15C0 6.71575 6.71575 0 15 0C23.2843 0 30 6.71575 30 15C30 23.2843 23.2843 30 15 30C6.71575 30 0 23.2843 0 15ZM22.6656 11.2957C22.4816 10.5889 21.9394 10.0323 21.251 9.84331C20.0034 9.5 15 9.5 15 9.5C15 9.5 9.99662 9.5 8.74894 9.84331C8.06044 10.0323 7.51825 10.5889 7.33425 11.2957C7 12.5769 7 15.25 7 15.25C7 15.25 7 17.923 7.33425 19.2043C7.51825 19.9111 8.06044 20.4678 8.74894 20.6567C9.99662 21 15 21 15 21C15 21 20.0034 21 21.251 20.6567C21.9394 20.4678 22.4816 19.9111 22.6656 19.2043C23 17.923 23 15.25 23 15.25C23 15.25 23 12.5769 22.6656 11.2957Z" fill="white"/>
<path fill-rule="evenodd" clip-rule="evenodd" d="M13.5001 18V13L17.5001 15.5001L13.5001 18Z" fill="white"/>
</svg>
