<svg width="26" height="28" preserveAspectRatio="none" fill="none" xmlns="http://www.w3.org/2000/svg"><mask id="a" style="mask-type:alpha" maskUnits="userSpaceOnUse" x="0" y="0" width="26" height="28"><path fill="#C4C4C4" d="M0 0h26v28H0z"/></mask><g mask="url(#a)"><path d="M178-10H26.946a14 14 0 0 0-9.948 4.149L-5.948 17.32A14 14 0 0 0-10 27.171v32.133c0 7.732 6.268 14 14 14h151.054c3.737 0 7.318-1.493 9.948-4.149l22.946-23.171A14 14 0 0 0 192 36.133V4c0-7.732-6.268-14-14-14Z" stroke="#000" stroke-width="20"/></g></svg>