<svg width="20" height="20" viewBox="0 0 20 20" fill="none" xmlns="http://www.w3.org/2000/svg">
<path d="M10 18.9584C5.05834 18.9584 1.04167 14.9417 1.04167 10.0001C1.04167 5.05842 5.05834 1.04175 10 1.04175C14.9417 1.04175 18.9583 5.05842 18.9583 10.0001C18.9583 14.9417 14.9417 18.9584 10 18.9584ZM10 2.29175C5.75001 2.29175 2.29167 5.75008 2.29167 10.0001C2.29167 14.2501 5.75001 17.7084 10 17.7084C14.25 17.7084 17.7083 14.2501 17.7083 10.0001C17.7083 5.75008 14.25 2.29175 10 2.29175Z" fill="#F7931E"/>
<path d="M10 11.4584C9.65833 11.4584 9.375 11.1751 9.375 10.8334V6.66675C9.375 6.32508 9.65833 6.04175 10 6.04175C10.3417 6.04175 10.625 6.32508 10.625 6.66675V10.8334C10.625 11.1751 10.3417 11.4584 10 11.4584Z" fill="#F7931E"/>
<path d="M10 14.1667C9.89167 14.1667 9.78334 14.1417 9.68334 14.1C9.58334 14.0583 9.49167 14 9.40834 13.925C9.33334 13.8416 9.27501 13.7583 9.23334 13.65C9.19167 13.55 9.16667 13.4417 9.16667 13.3333C9.16667 13.225 9.19167 13.1167 9.23334 13.0167C9.27501 12.9167 9.33334 12.825 9.40834 12.7417C9.49167 12.6667 9.58334 12.6083 9.68334 12.5667C9.88334 12.4833 10.1167 12.4833 10.3167 12.5667C10.4167 12.6083 10.5083 12.6667 10.5917 12.7417C10.6667 12.825 10.725 12.9167 10.7667 13.0167C10.8083 13.1167 10.8333 13.225 10.8333 13.3333C10.8333 13.4417 10.8083 13.55 10.7667 13.65C10.725 13.7583 10.6667 13.8416 10.5917 13.925C10.5083 14 10.4167 14.0583 10.3167 14.1C10.2167 14.1417 10.1083 14.1667 10 14.1667Z" fill="#F7931E"/>
</svg>
