<svg width="20" height="12" viewBox="0 0 20 12" fill="none" xmlns="http://www.w3.org/2000/svg">
<path d="M0.213174 5.57237L6.16039 0.693697C6.29794 0.580768 6.48156 0.518555 6.67735 0.518555C6.87314 0.518555 7.05676 0.580768 7.19431 0.693697L7.63228 1.05289C7.91727 1.28695 7.91727 1.66736 7.63228 1.90107L2.63826 5.99788L7.63782 10.0992C7.77537 10.2122 7.85132 10.3627 7.85132 10.5232C7.85132 10.6839 7.77537 10.8345 7.63782 10.9475L7.19985 11.3066C7.06219 11.4195 6.87868 11.4818 6.68289 11.4818C6.4871 11.4818 6.30348 11.4195 6.16593 11.3066L0.213174 6.42348C0.0752961 6.3102 -0.000433186 6.15894 1.41687e-06 5.99815C-0.000433186 5.83673 0.0752961 5.68557 0.213174 5.57237Z" fill="white"/>
<rect width="19" height="2" rx="1" transform="matrix(-1 0 0 1 19.865 5.15918)" fill="white"/>
</svg>
