<svg width="284" height="170" preserveAspectRatio="none" viewBox="0 0 284 170" fill="none" xmlns="http://www.w3.org/2000/svg">
<g filter="url(#filter0_d_62_528)">
<path d="M80.9112 60.0408C81.6475 59.3711 82.6071 59 83.6024 59H221C223.209 59 225 60.7909 225 63V88.2632C225 89.39 224.525 90.4644 223.691 91.2225L203.089 109.959C202.352 110.629 201.393 111 200.398 111H63C60.7909 111 59 109.209 59 107V81.7368C59 80.61 59.4752 79.5356 60.3087 78.7775L80.9112 60.0408Z" fill="#1AB641"/>
</g>
<path d="M80.9112 60.0408C81.6475 59.3711 82.6071 59 83.6024 59H221C223.209 59 225 60.7909 225 63V88.2632C225 89.39 224.525 90.4644 223.691 91.2225L203.089 109.959C202.352 110.629 201.393 111 200.398 111H63C60.7909 111 59 109.209 59 107V81.7368C59 80.61 59.4752 79.5356 60.3087 78.7775L80.9112 60.0408Z" fill="#1AB641"/>
<defs>
<filter id="filter0_d_62_528" x="0" y="0" width="284" height="170" filterUnits="userSpaceOnUse" color-interpolation-filters="sRGB">
<feFlood flood-opacity="0" result="BackgroundImageFix"/>
<feColorMatrix in="SourceAlpha" type="matrix" values="0 0 0 0 0 0 0 0 0 0 0 0 0 0 0 0 0 0 127 0" result="hardAlpha"/>
<feOffset/>
<feGaussianBlur stdDeviation="29.5"/>
<feComposite in2="hardAlpha" operator="out"/>
<feColorMatrix type="matrix" values="0 0 0 0 0.101961 0 0 0 0 0.713726 0 0 0 0 0.254902 0 0 0 0.6 0"/>
<feBlend mode="normal" in2="BackgroundImageFix" result="effect1_dropShadow_62_528"/>
<feBlend mode="normal" in="SourceGraphic" in2="effect1_dropShadow_62_528" result="shape"/>
</filter>
</defs>
</svg>
