<svg width="30" height="30" viewBox="0 0 30 30" fill="none" xmlns="http://www.w3.org/2000/svg">
<path fill-rule="evenodd" clip-rule="evenodd" d="M0 15C0 6.71575 6.71575 0 15 0C23.2843 0 30 6.71575 30 15C30 23.2843 23.2843 30 15 30C6.71575 30 0 23.2843 0 15ZM21.1843 6.5H9.31569C8.31487 6.5 7.5 7.305 7.5 8.3025V20.1325C7.5 21.13 8.31487 21.935 9.31569 21.935H19.3597L18.8903 20.3162L20.024 21.3575L21.0957 22.3375L23 24V8.3025C23 7.305 22.1851 6.5 21.1843 6.5Z" fill="white"/>
<path fill-rule="evenodd" clip-rule="evenodd" d="M17.7655 17.9272C17.7655 17.9272 17.4466 17.551 17.1809 17.2185C18.3412 16.8947 18.7841 16.1772 18.7841 16.1772C18.4209 16.4135 18.0755 16.5797 17.7655 16.6935C17.3226 16.8772 16.8975 16.9997 16.4812 17.0697C15.6309 17.2272 14.8515 17.1835 14.1872 17.061C13.6824 16.9647 13.2484 16.8247 12.8852 16.6847C12.6815 16.606 12.4601 16.5097 12.2386 16.3872C12.2121 16.3697 12.1855 16.361 12.1589 16.3435C12.1412 16.3347 12.1324 16.326 12.1235 16.3172C11.9641 16.2297 11.8755 16.1685 11.8755 16.1685C11.8755 16.1685 12.3006 16.8685 13.4255 17.201C13.1597 17.5335 12.8321 17.9272 12.8321 17.9272C10.8746 17.866 10.1306 16.5972 10.1306 16.5972C10.1306 13.7797 11.4061 11.496 11.4061 11.496C12.6815 10.551 13.8949 10.5772 13.8949 10.5772L13.9835 10.6822C12.3892 11.1372 11.6541 11.8285 11.6541 11.8285C11.6541 11.8285 11.8489 11.7235 12.1766 11.5747C13.1244 11.1635 13.8772 11.0497 14.1872 11.0235C14.2404 11.0147 14.2846 11.006 14.3377 11.006C14.8781 10.936 15.4892 10.9185 16.1269 10.9885C16.9684 11.0847 17.8717 11.3297 18.7929 11.8285C18.7929 11.8285 18.0932 11.1722 16.5875 10.7172L16.7115 10.5772C16.7115 10.5772 17.9249 10.551 19.2004 11.496C19.2004 11.496 20.4757 13.7797 20.4757 16.5972C20.4757 16.5972 19.7229 17.866 17.7655 17.9272ZM13.8964 13.9997C13.3955 13.9997 13.0001 14.4502 13.0001 14.9997C13.0001 15.5493 13.4042 15.9997 13.8964 15.9997C14.3972 15.9997 14.7927 15.5493 14.7927 14.9997C14.8014 14.4502 14.3972 13.9997 13.8964 13.9997ZM17.1037 13.9997C16.6029 13.9997 16.2074 14.4502 16.2074 14.9997C16.2074 15.5493 16.6117 15.9997 17.1037 15.9997C17.6046 15.9997 18.0001 15.5493 18.0001 14.9997C18.0001 14.4502 17.6046 13.9997 17.1037 13.9997Z" fill="white"/>
</svg>
