<svg width="30" height="30" viewBox="0 0 30 30" fill="none" xmlns="http://www.w3.org/2000/svg">
<ellipse cx="15" cy="14.7621" rx="15" ry="14.7621" fill="white"/>
<path d="M26 17.2224C26 24.56 21.0751 30 15 30C8.92487 30 4 24.56 4 17.2224C4 9.88482 8.92487 3.93652 15 3.93652C21.0751 3.93652 26 9.88482 26 17.2224Z" fill="#170D25"/>
<path d="M15 2.95264C7.81736 2.95264 2 8.9886 2 16.4411C2 22.7802 6.19208 28.0413 11.8479 29.5244C11.7826 29.3557 11.7506 29.1192 11.7506 28.8839V26.5902H10.1253C9.24792 26.5902 8.43472 26.1862 8.07736 25.4434C7.65472 24.6341 7.58945 23.3863 6.51736 22.6103C6.19209 22.3405 6.45209 22.0707 6.80945 22.104C7.49209 22.3061 8.04417 22.779 8.56417 23.4862C9.08417 24.1945 9.31209 24.3632 10.2868 24.3632C10.7415 24.3632 11.4563 24.3299 12.1068 24.2277C12.4642 23.283 13.0815 22.4404 13.8294 22.0363C9.47472 21.4968 7.39472 19.2709 7.39472 16.2357C7.39472 14.9201 7.94681 13.6723 8.85736 12.5932C8.56528 11.5474 8.17472 9.38924 8.98791 8.54664C10.9385 8.54664 12.1079 9.8622 12.4 10.1985C13.3747 9.86105 14.4479 9.65901 15.5521 9.65901C16.6894 9.65901 17.7294 9.86105 18.7042 10.1985C18.9963 9.86105 20.1668 8.54664 22.1163 8.54664C22.8963 9.35595 22.5389 11.5474 22.2136 12.5932C23.1242 13.639 23.6442 14.9201 23.6442 16.2357C23.6442 19.2709 21.5963 21.4968 17.2747 21.9686C18.4774 22.6091 19.3226 24.4298 19.3226 25.7786V28.8506C19.3226 28.9516 19.2906 29.0526 19.2906 29.1536C24.36 27.333 28 22.3428 28 16.4411C28 8.9886 22.1826 2.95264 15 2.95264Z" fill="white"/>
</svg>
