<svg width="174" height="174" viewBox="0 0 174 174" fill="none" xmlns="http://www.w3.org/2000/svg">
<g filter="url(#filter0_f_49_1159)">
<path d="M63.4377 151.81C62.4868 154.426 59.5869 155.791 57.042 154.665C42.4006 148.183 30.2102 137.102 22.3682 123.038C13.7058 107.503 10.9291 89.3667 14.5464 71.951C18.1637 54.5354 27.933 39.0055 42.0656 28.2046C54.8596 18.4268 70.4544 13.117 86.466 13.0018C89.2491 12.9818 91.3654 15.3891 91.196 18.167V18.167C91.0267 20.945 88.6349 23.0388 85.8522 23.0887C72.2626 23.3325 59.0541 27.906 48.1855 36.2123C35.9777 45.5421 27.5389 58.957 24.4143 74.0007C21.2897 89.0443 23.6882 104.71 31.1709 118.13C37.8326 130.077 48.1273 139.532 60.4958 145.168C63.0285 146.322 64.3886 149.195 63.4377 151.81V151.81Z" fill="white"/>
</g>
<path d="M61.7159 156.546C45.5499 150.669 31.9363 139.344 23.2155 124.517C14.4947 109.691 11.2114 92.289 13.9301 75.304C16.6489 58.319 25.1997 42.8117 38.1128 31.4479C51.0258 20.0841 67.4942 13.5738 84.687 13.0362L85.002 23.1098C70.1508 23.5742 55.9253 29.1978 44.771 39.0139C33.6167 48.83 26.2304 62.2252 23.882 76.8969C21.5336 91.5686 24.3697 106.6 31.9027 119.407C39.4358 132.215 51.1952 141.998 65.1595 147.074L61.7159 156.546Z" fill="white"/>
<g filter="url(#filter1_f_49_1159)">
<path d="M84.4458 18.0866C84.3428 15.3054 86.5158 12.9493 89.2976 13.0357C98.7749 13.33 108.124 15.4439 116.83 19.2787C127.076 23.7919 136.164 30.5711 143.411 39.1058C150.657 47.6406 155.872 57.7083 158.663 68.5507C161.455 79.3931 161.749 90.7275 159.525 101.7C157.301 112.673 152.616 122.998 145.823 131.898C139.03 140.798 130.307 148.04 120.309 153.08C110.311 158.119 99.3005 160.824 88.1058 160.992C78.5936 161.134 69.1594 159.44 60.3154 156.021C57.7196 155.018 56.6355 152.001 57.8134 149.48V149.48C58.9913 146.958 61.9848 145.889 64.5913 146.865C72.0447 149.655 79.9681 151.034 87.9552 150.914C97.6252 150.77 107.136 148.433 115.772 144.08C124.408 139.727 131.944 133.471 137.812 125.783C143.679 118.095 147.726 109.177 149.648 99.6982C151.569 90.2198 151.314 80.4291 148.903 71.0634C146.492 61.6977 141.987 53.0012 135.728 45.6289C129.468 38.2565 121.618 32.4006 112.767 28.5021C105.457 25.2821 97.622 23.4668 89.6705 23.1343C86.8898 23.0181 84.5489 20.8678 84.4458 18.0866V18.0866Z" fill="#32D74B"/>
</g>
<g filter="url(#filter2_d_49_1159)">
<path d="M84.2592 13.0508C95.4475 12.6361 106.584 14.7655 116.83 19.2787C127.076 23.7919 136.164 30.5711 143.411 39.1058C150.657 47.6406 155.872 57.7083 158.663 68.5507C161.455 79.3931 161.749 90.7275 159.525 101.7C157.301 112.673 152.616 122.998 145.823 131.898C139.03 140.798 130.307 148.04 120.309 153.08C110.311 158.119 99.3005 160.824 88.1058 160.992C76.9111 161.159 65.8244 158.784 55.6806 154.045L59.9462 144.914C68.7084 149.007 78.2852 151.059 87.9552 150.914C97.6252 150.77 107.136 148.433 115.772 144.08C124.408 139.727 131.944 133.471 137.812 125.783C143.679 118.095 147.726 109.177 149.648 99.6982C151.569 90.2198 151.314 80.4291 148.903 71.0634C146.492 61.6977 141.987 53.0012 135.728 45.6289C129.468 38.2565 121.618 32.4006 112.767 28.5021C103.917 24.6036 94.2969 22.7642 84.6325 23.1224L84.2592 13.0508Z" fill="#32D74B"/>
</g>
<defs>
<filter id="filter0_f_49_1159" x="0.536719" y="0.538795" width="103.132" height="166.987" filterUnits="userSpaceOnUse" color-interpolation-filters="sRGB">
<feFlood flood-opacity="0" result="BackgroundImageFix"/>
<feBlend mode="normal" in="SourceGraphic" in2="BackgroundImageFix" result="shape"/>
<feGaussianBlur stdDeviation="6.23158" result="effect1_foregroundBlur_49_1159"/>
</filter>
<filter id="filter1_f_49_1159" x="44.8761" y="0.570045" width="128.587" height="172.893" filterUnits="userSpaceOnUse" color-interpolation-filters="sRGB">
<feFlood flood-opacity="0" result="BackgroundImageFix"/>
<feBlend mode="normal" in="SourceGraphic" in2="BackgroundImageFix" result="shape"/>
<feGaussianBlur stdDeviation="6.23158" result="effect1_foregroundBlur_49_1159"/>
</filter>
<filter id="filter2_d_49_1159" x="49.4491" y="13" width="117.782" height="160.463" filterUnits="userSpaceOnUse" color-interpolation-filters="sRGB">
<feFlood flood-opacity="0" result="BackgroundImageFix"/>
<feColorMatrix in="SourceAlpha" type="matrix" values="0 0 0 0 0 0 0 0 0 0 0 0 0 0 0 0 0 0 127 0" result="hardAlpha"/>
<feOffset dy="6.23158"/>
<feGaussianBlur stdDeviation="3.11579"/>
<feComposite in2="hardAlpha" operator="out"/>
<feColorMatrix type="matrix" values="0 0 0 0 0 0 0 0 0 0 0 0 0 0 0 0 0 0 0.25 0"/>
<feBlend mode="normal" in2="BackgroundImageFix" result="effect1_dropShadow_49_1159"/>
<feBlend mode="normal" in="SourceGraphic" in2="effect1_dropShadow_49_1159" result="shape"/>
</filter>
</defs>
</svg>
