<svg width="26" height="23" fill="none" xmlns="http://www.w3.org/2000/svg"><mask id="a" style="mask-type:alpha" maskUnits="userSpaceOnUse" x="0" y="0" width="26" height="23"><path fill="#C4C4C4" d="M0 0h26v23H0z"/></mask><g mask="url(#a)"><path d="M178-8.5H26.72a12.5 12.5 0 0 0-7.98 2.88L-3.98 13.225a12.5 12.5 0 0 0-4.52 9.62V48c0 6.904 5.596 12.5 12.5 12.5h151.279c2.915 0 5.737-1.018 7.981-2.88l22.72-18.846a12.5 12.5 0 0 0 4.52-9.62V4c0-6.904-5.596-12.5-12.5-12.5Z" stroke="#0E0715" stroke-width="17"/></g></svg>