<svg width="284" height="170" preserveAspectRatio="none" fill="none" xmlns="http://www.w3.org/2000/svg"><g filter="url(#a)"><path d="M80.911 60.04A4 4 0 0 1 83.602 59H221a4 4 0 0 1 4 4v25.263a3.999 3.999 0 0 1-1.309 2.96l-20.602 18.736a4 4 0 0 1-2.691 1.041H63a4 4 0 0 1-4-4V81.737a4 4 0 0 1 1.309-2.96L80.91 60.041Z" fill="#1AB641"/></g><path d="M80.911 60.04A4 4 0 0 1 83.602 59H221a4 4 0 0 1 4 4v25.263a3.999 3.999 0 0 1-1.309 2.96l-20.602 18.736a4 4 0 0 1-2.691 1.041H63a4 4 0 0 1-4-4V81.737a4 4 0 0 1 1.309-2.96L80.91 60.041Z" fill="#1AB641"/><defs><filter id="a" x="0" y="0" width="284" height="170" filterUnits="userSpaceOnUse" color-interpolation-filters="sRGB"><feFlood flood-opacity="0" result="BackgroundImageFix"/><feColorMatrix in="SourceAlpha" values="0 0 0 0 0 0 0 0 0 0 0 0 0 0 0 0 0 0 127 0" result="hardAlpha"/><feOffset/><feGaussianBlur stdDeviation="29.5"/><feComposite in2="hardAlpha" operator="out"/><feColorMatrix values="0 0 0 0 0.101961 0 0 0 0 0.713726 0 0 0 0 0.254902 0 0 0 0.6 0"/><feBlend in2="BackgroundImageFix" result="effect1_dropShadow_62_528"/><feBlend in="SourceGraphic" in2="effect1_dropShadow_62_528" result="shape"/></filter></defs></svg>