<svg width="442" height="170" fill="none" xmlns="http://www.w3.org/2000/svg"><g filter="url(#a)"><path d="M103.197 59.374a3.996 3.996 0 0 1 1.689-.374H379a4 4 0 0 1 4 4v25.266a4.001 4.001 0 0 1-1.305 2.956l-20.55 18.734A4 4 0 0 1 358.45 111H63a4 4 0 0 1-4-4V82.517a4 4 0 0 1 2.31-3.626l41.887-19.517Z" fill="#1AB641"/></g><path d="M80.911 60.04A4 4 0 0 1 83.602 59H407a4 4 0 0 1 4 4v25.263a3.999 3.999 0 0 1-1.309 2.96l-20.602 18.736a3.998 3.998 0 0 1-2.691 1.041H63a4 4 0 0 1-4-4V81.737a4 4 0 0 1 1.309-2.96L80.91 60.041Z" fill="#1AB641"/><defs><filter id="a" x="0" y="0" width="442" height="170" filterUnits="userSpaceOnUse" color-interpolation-filters="sRGB"><feFlood flood-opacity="0" result="BackgroundImageFix"/><feColorMatrix in="SourceAlpha" values="0 0 0 0 0 0 0 0 0 0 0 0 0 0 0 0 0 0 127 0" result="hardAlpha"/><feOffset/><feGaussianBlur stdDeviation="29.5"/><feComposite in2="hardAlpha" operator="out"/><feColorMatrix values="0 0 0 0 0.101961 0 0 0 0 0.713726 0 0 0 0 0.254902 0 0 0 0.6 0"/><feBlend in2="BackgroundImageFix" result="effect1_dropShadow_129_554"/><feBlend in="SourceGraphic" in2="effect1_dropShadow_129_554" result="shape"/></filter></defs></svg>