<svg width="19" height="32" fill="none" xmlns="http://www.w3.org/2000/svg"><g clip-path="url(#a)"><mask id="b" style="mask-type:alpha" maskUnits="userSpaceOnUse" x="0" y="0" width="137" height="32"><path d="M17.895.5h114.989a3.5 3.5 0 0 1 3.499 3.6l-.373 13.102a3.503 3.503 0 0 1-1.236 2.57L121.913 30.67a3.499 3.499 0 0 1-2.262.83H4A3.5 3.5 0 0 1 .5 28V15.029a3.5 3.5 0 0 1 1.324-2.742L15.719 1.26A3.5 3.5 0 0 1 17.895.5Z" stroke="#7D817E"/></mask><g mask="url(#b)"><path d="M19-2H-5v39h24V-2Z" fill="#7D817E"/></g></g><defs><clipPath id="a"><path fill="#fff" d="M0 0h19v32H0z"/></clipPath></defs></svg>